<?xml version="1.0" encoding="utf-8"?>
<!-- Generator: Adobe Illustrator 26.0.3, SVG Export Plug-In . SVG Version: 6.00 Build 0)  -->
<svg version="1.1" id="Слой_1" xmlns="http://www.w3.org/2000/svg" xmlns:xlink="http://www.w3.org/1999/xlink" x="0px" y="0px"
	 viewBox="0 0 450 550" style="enable-background:new 0 0 450 550;" xml:space="preserve">
<style type="text/css">
	.st0{fill:#ED1B24;}
	.st1{fill:#AAE0FA;}
	.st2{fill:#FEF327;stroke:#000000;stroke-width:1.5;stroke-linecap:round;stroke-linejoin:round;stroke-miterlimit:10;}
	.st3{fill:#545952;}
	.st4{fill:#777576;}
	.st5{fill:#231E25;stroke:#555A5E;stroke-width:2;stroke-miterlimit:10;}
	.st6{fill:#83828A;}
	.st7{fill:#FEF327;stroke:#000000;stroke-linecap:round;stroke-linejoin:round;stroke-miterlimit:10;}
	.st8{fill:#EABB09;}
	.st9{fill:url(#SVGID_1_);stroke:#000000;stroke-miterlimit:10;}
	.st10{stroke:#000000;stroke-miterlimit:10;}
	.st11{fill:url(#SVGID_00000061440610580495802230000005464488090573538199_);stroke:#000000;stroke-miterlimit:10;}
	.st12{fill:#333333;stroke:#333333;stroke-linecap:round;stroke-linejoin:round;stroke-miterlimit:10;}
	.st13{fill:none;stroke:#4D4D4D;stroke-linecap:round;stroke-linejoin:round;stroke-miterlimit:10;}
</style>
<g>
	<path class="st0" d="M224.9,542.9c-3.7-24.5-25-43.4-50.4-43.4l-95-0.1c-43.6,0-79-35.5-79-79.1v-70h449v70
		c0,43.6-35.5,79.1-79,79.1l-96,0.1c-13.5,0-26.1,5.3-35.5,14.8C231.2,522.2,226.3,532.1,224.9,542.9z"/>
	<path d="M449,350.8v69.5c0,43.3-35.2,78.6-78.5,78.6l-96,0.1c-13.6,0-26.3,5.3-35.9,15c-7.1,7.2-11.8,16.2-13.7,26
		c-4.9-23.3-25.7-40.9-50.4-41l-95-0.1C36.2,498.8,1,463.6,1,420.3v-69.5H449 M450,349.8H0v70.5c0,43.9,35.6,79.6,79.5,79.6l95,0.1
		c27.7,0,50.2,22.3,50.5,50c-0.3-27.5,22-50,49.5-50l96-0.1c43.9,0,79.5-35.7,79.5-79.6V349.8L450,349.8z M225,550L225,550L225,550
		L225,550z"/>
</g>
<g>
	<rect x="0.5" y="0.5" class="st1" width="449" height="348.8"/>
	<path d="M449,1v347.8H1V1H449 M450,0H0v349.8h450V0L450,0z"/>
</g>
<g>
	<polygon class="st2" points="305.5,492.6 360.5,475.6 312.5,463.6 360.5,444.9 305.5,447.8 347.5,403.6 284.5,431.6 284.5,368.4 
		263.2,430.5 251.5,400.6 246.6,424.1 225.5,354.6 206.3,423.6 193.5,400.6 193.5,433 168.5,364.6 171.5,431.6 120.5,402.6 
		144.5,444.6 75.5,426.6 137.5,467.6 94.5,477.6 157.7,492.6 	"/>
	<polygon points="156,488.8 299.8,488.8 305,479.8 274,447.8 224,430.8 203,445.8 191,440.8 161,454.8 146,481.8 	"/>
	<polygon class="st3" points="263,479.8 287,466.8 276.8,450.7 282,465.8 	"/>
	<g>
		<path class="st4" d="M276.8,450.7c3.6,5.1,7.2,10.6,10.6,15.9c0.1,0.2,0.1,0.5-0.2,0.7c-7.8,4.3-16.1,8.7-24.2,12.6
			c5.6-3.4,12-7,17.8-10.2c2-1.1,4-2.2,6-3.2l-0.2,0.7C283.2,461.7,279.8,456.2,276.8,450.7L276.8,450.7z"/>
	</g>
	<polygon class="st3" points="254,469.8 254,459.8 208,454.8 	"/>
	<g>
		<path class="st4" d="M254,469.8c-15.5-4.3-30.9-9.4-46-15C223.5,459.2,238.9,464.2,254,469.8L254,469.8z"/>
	</g>
	<polygon class="st3" points="187,458.8 203,445.8 192,449.8 	"/>
	<g>
		<path class="st4" d="M203,445.8c-4.9,4.9-10.2,9.2-16,13C191.9,454,197.2,449.6,203,445.8L203,445.8z"/>
	</g>
	<polygon class="st3" points="185.3,469.8 146,481.8 151.9,486 	"/>
	<g>
		<path class="st4" d="M146,481.8c12.9-4.6,26.1-8.7,39.3-12C172.4,474.5,159.2,478.5,146,481.8L146,481.8z"/>
	</g>
</g>
<g>
	<g>
		<circle class="st5" cx="331.7" cy="246.1" r="10.2"/>
		<circle class="st6" cx="335.5" cy="241.3" r="2.5"/>
	</g>
	<g>
		<circle class="st5" cx="322" cy="272.8" r="11"/>
		<circle class="st6" cx="324.9" cy="267.1" r="2.5"/>
	</g>
	<g>
		<circle class="st5" cx="359" cy="283.8" r="11"/>
		<circle class="st6" cx="361.1" cy="279.2" r="2.5"/>
	</g>
	<g>
		<circle class="st5" cx="393" cy="276.8" r="11"/>
		<circle class="st6" cx="398.6" cy="273.8" r="2.5"/>
	</g>
	<g>
		<circle class="st5" cx="426" cy="284.8" r="11"/>
		<circle class="st6" cx="431.7" cy="281.9" r="2.5"/>
	</g>
	<g>
		<circle class="st5" cx="359.2" cy="245.9" r="9.3"/>
		<circle class="st6" cx="364.2" cy="243.9" r="2.1"/>
	</g>
	<g>
		<path class="st7" d="M269.5,267.3l8-24c1.7-2.1,4.3-5.1,8-8c4.6-3.7,14.2-9.9,42-12c18.6-1.4,27.9-2.1,41,1
			c9.1,2.2,25.9,6.2,40,21c11,11.5,15.2,24.2,17,31c0.9,0,1.7,0,2.6,0c-2-9.2-6.8-23.2-18.6-35c-15.1-15.1-33.4-18.5-47-21
			c-15.2-2.8-27.1-1.8-36-1c-11.5,1-23.1,2.1-36,9c-5.3,2.8-9.3,5.8-12,8c1.8-7.4,3.6-13.5,5-18c2.8-9,4.1-11.5,5-13
			c1.6-2.7,3.3-5,10-12c6.4-6.7,9.6-10,12-12c3.5-2.9,13.9-10.2,36-9c0.3-0.7,0.7-1.3,1-2c-5.6-0.5-12.8-0.6-21,1
			c-4.1,0.8-7.8,1.9-11,3c1.6-1.6,3.6-3.3,6-5c1.8-1.2,3.5-2.2,5-3c-0.3-1.3-0.7-2.7-1-4c-5,3.6-10.5,7.9-16,13
			c-4.1,3.7-7.7,7.4-11,11c2.2-4.3,5.7-10.9,10-19c4.4-8.2,6.6-12.4,7-13c12.9-20.1,38.6-25.3,42-26c4.1-0.8,10.3-1.6,18-1
			c0.3-0.7,0.7-1.3,1-2h-16.3c1.1-0.7,2.8-1.9,4.3-4c1.1-1.5,1.7-2.9,2-4c2-0.1,4.4-0.4,7-1c3.3-0.8,6-2,8-3c-0.7-0.7-1.3-1.3-2-2
			c-1.7,0.7-3.7,1.4-6,2c-1.8,0.5-3.5,0.8-5,1c1.6-2.2,3.4-5.2,5-9c1.8-4.2,2.6-8.1,3-11c-0.7-0.3-1.3-0.7-2-1
			c-1.6,6-4.6,13.8-10,22c-2.6,4-5.4,7.3-8,10c-4.8,0.6-12,2-20,6c-8.9,4.5-14.7,10.2-18,14c2.9-4.4,6.2-10.1,9-17
			c2.4-5.9,4-11.3,5-16c-0.7-0.3-1.3-0.7-2-1c-1.7,4.7-3.3,9.3-5,14c0.3-4.8,0.2-8.9,0-12c-0.5-8.1-1.6-11.9-2-13
			c-0.7-2.1-1.4-3.8-2-5c-0.7,0.7-1.3,1.3-2,2c0.8,2.2,1.5,4.5,2,7c3.1,14.4,0,27-3,35c0.2-2,0.3-5.3-1-9c-0.6-1.6-1.3-2.9-2-4
			c-0.7,0.3-1.3,0.7-2,1c2.9,9.1,2.2,15.6,1,20c-1.8,6.3-5,9.2-11,20c-3.2,5.8-5.6,10.7-7,14c0-5.7,0-11.3,0-17l-3,5
			c0.7,4.6,1,11.4-1,19c-1.8,6.7-4.6,10.9-7,15c-3.8,6.5-8.5,16.2-12,30c-1-0.7-2-1.3-3-2c0,4,0,8,0,12c-0.8,1.4-1.5,3.1-2,5
			C266.1,256.4,268.1,263.7,269.5,267.3z"/>
		<path class="st7" d="M433.5,90.3c-1,0.7-2.4,1.7-4,3c-4.8,4-6.9,7.4-10,11c-2.8,3.2-5.6,6.5-10,9c-11.2,6.4-23.2,2.3-24,2
			c-1.4-0.5-3.7-1.1-4.7-1.6c-1.3-0.7-1.8-2.4-1.1-3.7c2-3.6,6.3-8.5,11.8-12.7c7.6-5.8,15.3-7.2,20-8
			C420.7,87.8,428.6,89,433.5,90.3z"/>
		<path class="st7" d="M377.5,124.3c-1.6,1.2-1.9,2.5-1.9,2.7c-0.4,1.6,0.4,3.3,1.9,5.3c4.3,5.4,11,8,11,8c13.7,5.3,29.4,4.2,34,3
			c0.6-0.2,2.7-0.8,5.5-0.5c1.7,0.2,3.1,0.6,4,1c-6.2-7.2-12.4-11.8-16.8-14.5c-4.1-2.6-11-6.7-20.7-8
			C394.5,121.3,383.3,119.8,377.5,124.3z"/>
		<path class="st7" d="M375.4,134.7c-0.7,0.6-1.8,1.4-3,2.6c-7.4,7-8.1,12.5-12,18c-5.9,8.3-17,14.1-27,13c-3-0.3-5.4-1.2-7.3-2.1
			c-1-0.5-1.5-1.6-1.3-2.7c0.7-2.8,2-6.5,4.6-10.2c7.2-10.4,19-13.6,28-16C361.6,136.2,367.8,134.9,375.4,134.7z"/>
		<path class="st7" d="M345.6,172.3c-0.2-1.2,0.5-2.4,1.6-2.9c3-1.5,7.1-3.2,12.3-4.1c2.8-0.5,10.8-1.8,20,1c5.8,1.8,11.6,6.2,23,15
			c4.2,3.2,7.6,6,10,8c-1.6-0.4-4-0.9-7-1c-8.1-0.4-13.8,2-17,3c-14.3,4.5-34.9-1.4-41-13C346.4,176.2,345.8,174.1,345.6,172.3z"/>
		<path class="st7" d="M286,210.7c1.1-1.3,2.9-3,5.4-4.4c1.9-1.1,3.6-1.7,5-2c3-5,6.6-7.6,9-9c10.7-6.2,26-3.7,39,6
			c-1.4-0.4-3.4-1-6-1c-13.1-0.1-18.7,13.2-29,13c-3.2,0-7.6-1.4-12.9-7.3c-1.5,0.4-3.2,1.2-5.1,2.3c-3.6,2.2-5.8,5-7,6.8
			C285,213.7,285.5,212.2,286,210.7z"/>
		<path class="st7" d="M373.8,93.8c1,0.8,2.4,0.9,3.5,0.3c4.4-2.3,10.4-6.6,14.2-13.7c6.2-11.9,3.4-26.1,0-33c-0.6-1.2-2.3-4.3-4-9
			c-1.6-4.2-2.5-7.7-3-10c-0.3,1.4-0.9,3.6-2,6c-3.4,7.8-8.3,10.8-12,15c-6.1,6.8-10.2,18.1-8,28C364.3,85.4,369.9,90.8,373.8,93.8z
			"/>
		<path class="st7" d="M333.3,113.4c-1.8,0.1-3.4-1-4-2.6c-2.2-5.6-2.1-10.1-1.8-12.4c1.2-11.2,10.3-18.8,14-22
			c3.1-2.6,5.2-3.6,13-10c2.6-2.1,4.6-3.8,6-5c-0.5,1.3-1.3,3.4-2,6c-2.1,7.7-1.7,12.6-2,17c-0.7,9-5.2,22.1-15,27
			C338.6,112.7,335.8,113.2,333.3,113.4z"/>
		<path class="st7" d="M319,97.5c1.5-0.1,2.8-0.9,3.4-2.3c2.4-5.6,5.2-14.7,3-24.9c-2.2-10.6-8.5-17.7-15-25c-4.8-5.5-9.5-9.4-13-12
			c0.5,1.8,1,4.6,1,8c0,6.4-2.1,9.5-3,16c-0.8,5.3-0.3,9.5,0,12c0.7,5.7,2.3,20.3,13,26C310.2,96.2,313.7,97.7,319,97.5z"/>
		<path class="st7" d="M312.6,129.4c1.7,0.1,3.2-1.2,3.4-2.9c0.4-3,0.5-6.9-0.5-11.2c-2.4-9.7-9.1-15.5-12-18
			c-4.5-3.9-6.1-3.6-15-10c-4-2.8-7-5.4-9-7c0.8,1.3,1.9,3.3,3,6c2.5,6.3,2.7,11.1,3,14c1.2,9.9,7.7,22.3,18,27
			C305.4,128.2,308.4,129.2,312.6,129.4z"/>
		<path class="st7" d="M266.5,108.3c1.3,1.4,3.3,3.6,6,6c4.3,3.9,7.8,6.1,9,7c6.6,4.6,13.6,14.2,16,25c2,9,0.4,16.9-1.3,22
			c-0.4,1.3-1.6,2.1-3,2.1c-2.8,0-6.3-0.4-9.8-2.1c-13.5-6.8-14.9-28.2-15-30c-0.4-7.2,1.1-13-1-25
			C267.1,111.2,266.7,109.5,266.5,108.3z"/>
		<path class="st7" d="M394.5,268.3c-0.6-3.7-1.7-8.5-4-14c-1.9-4.5-3.8-9.2-8-14c-3.7-4.3-7.2-6.3-12-13c-0.9-1.3-1.6-2.3-2-3
			c-1.1-0.2-2.2-0.5-3.3-0.7c1,1.8,2.8,4.6,5.3,7.7c5.2,6.3,7.9,6.5,12,12c3.3,4.4,4.8,8.5,6,12c1.8,5.1,2.6,9.6,3,13
			C392.5,268.3,393.5,268.3,394.5,268.3z"/>
		<path class="st7" d="M357.5,239.3l2-1c0,0,0.2-3.9,0-6c-0.6-5.9-4.8-9.3-5.7-10.1c-1.4,0-2.8-0.1-4.2-0.1c1.5,1.1,3.3,2.8,5,5.2
			C357.7,232.1,357.5,239.3,357.5,239.3z"/>
		<path class="st7" d="M340.6,222.4c1,1.2,2.5,3.2,3.8,5.9c6.4,13.2-1.4,23.9,4,37c1,2.5,3,6.2,7,10l-2,1c-3.3-3.7-5.1-7-6-9
			c-6.9-15.2,1.1-28.1-7-40c-1.6-2.3-3.3-3.9-4.2-4.6C337.7,222.6,339.2,222.5,340.6,222.4z"/>
		<path class="st7" d="M326.7,223.4c3.1,3.1,4.8,6,5.7,7.9c1.7,3.7,1,6,1,6s-1-0.1-1,0c-0.2-1.9-1-5.9-5-10c-1.7-1.8-3.6-2.9-5-3.6
			C323.9,223.6,325.3,223.5,326.7,223.4z"/>
		<path class="st7" d="M313.8,224.9c0.4,1.9,0.8,4.9,0.6,8.4c-0.4,10.3-4.8,14.5-4,22c0.3,2.6,1.3,6.5,5,11c-0.3,0.3-0.7,0.7-1,1
			c-4.3-4.4-5.6-8.4-6-11c-1.3-7.7,3.5-12.5,3-23c-0.2-3.4-0.8-6.2-1.3-7.8C311.4,225.3,312.6,225.1,313.8,224.9z"/>
		<path class="st8" d="M293.2,166.3c-1.1-2.8-2.2-5.7-3.3-8.5c-0.2-2.2-0.5-5.7,0-10c0.4-4.1,1.3-7.6,1.3-7.5
			c-0.5,1.3-0.9,2.8-1.3,4.5c-0.5,2.4-1,6.1-1,8c-0.2-0.7-0.5-1.8-1-3c-0.8-2.1-1.5-3-2-4c0,0-0.9-1.8-1-11.1l0,0
			c0,0.5-0.1,1-0.1,1.5c-0.1,2.7-0.1,5.2,0.1,7.6c-3.6-7.2-7.2-14.3-10.7-21.5c2.3,4.5,4.6,9.3,6.7,14.5c1,2.3,1.9,4.6,2.8,6.9
			c-0.7-0.6-1.6-1.2-2.8-1.9c-1.4-0.8-2.7-1.2-3.7-1.5c1.5,0.5,4.4,1.7,6.7,4.5c1.1,1.2,1.8,2.5,2.3,3.5c0.6,1,1.3,2.5,1.7,4.5
			c0.3,1.4,0.3,2.6,0.3,3.5c-0.9-1-2.3-2.3-4.3-3.5c-1.8-1.1-3.5-1.6-4.7-2c3.4,1.2,5.5,2.9,6.7,4c2.2,2,3.4,4.2,5,7
			C292,163.6,292.7,165.2,293.2,166.3z"/>
		<path class="st8" d="M313.8,125.7c-1.5-2.2-3-4.4-4.5-6.7c-0.7-1.9-1.6-4.8-2-8.6c-0.4-3.6-0.4-6.8-0.4-6.7
			c-0.1,1.2-0.2,2.6-0.2,4.1c0.1,2.2,0.4,5.5,0.8,7.1c-0.3-0.6-0.8-1.4-1.5-2.4c-1.1-1.6-1.9-2.3-2.5-3c0,0-1.1-1.4-3.1-9.4l0,0
			c0.1,0.4,0.1,0.9,0.2,1.3c0.4,2.3,1,4.5,1.6,6.5c-4.5-5.5-9-10.9-13.4-16.4c2.9,3.4,5.8,7.1,8.6,11.1c1.3,1.8,2.5,3.6,3.7,5.4
			c-0.7-0.3-1.6-0.8-2.7-1.1c-1.3-0.4-2.5-0.5-3.5-0.5c1.4,0.1,4.1,0.6,6.6,2.5c1.2,0.9,2,1.8,2.6,2.6c0.7,0.7,1.6,1.9,2.4,3.5
			c0.5,1.1,0.8,2.1,0.9,3c-1-0.7-2.4-1.6-4.3-2.2c-1.8-0.6-3.3-0.7-4.4-0.8c3.1,0.3,5.3,1.4,6.5,2.1c2.2,1.3,3.7,2.9,5.6,5
			C312.2,123.6,313.2,124.8,313.8,125.7z"/>
		<path class="st8" d="M318.8,95c-0.9-3.1-1.7-6.1-2.6-9.2c0-2.4,0.1-6,1-10.5c0.9-4.2,2.2-7.8,2.1-7.7c-0.6,1.3-1.3,2.9-1.8,4.6
			c-0.8,2.5-1.6,6.3-1.9,8.3c-0.1-0.8-0.4-1.9-0.8-3.2c-0.7-2.2-1.3-3.3-1.7-4.4c0,0-0.8-2,0.1-11.7l0,0c-0.1,0.5-0.2,1-0.2,1.6
			c-0.4,2.8-0.6,5.4-0.7,7.9c-3.1-7.9-6.2-15.7-9.3-23.6c2,5,3.9,10.2,5.7,15.8c0.8,2.5,1.6,5,2.2,7.5c-0.7-0.6-1.6-1.5-2.8-2.3
			c-1.4-0.9-2.8-1.6-3.8-2c1.6,0.7,4.5,2.3,6.7,5.4c1,1.4,1.7,2.8,2.1,3.9c0.5,1.1,1.2,2.8,1.4,4.9c0.2,1.5,0.1,2.7-0.1,3.7
			c-0.9-1.1-2.2-2.7-4.2-4.1c-1.8-1.3-3.6-2.1-4.9-2.5c3.5,1.6,5.6,3.6,6.8,4.8c2.1,2.3,3.2,4.7,4.6,7.8
			C317.8,92.1,318.4,93.9,318.8,95z"/>
		<path class="st8" d="M332.4,110.7c1.3-2.7,2.7-5.4,4-8.2c0.5-2.2,1-5.7,0.9-10c-0.1-4.1-0.6-7.7-0.5-7.6c0.3,1.4,0.6,2.9,0.8,4.6
			c0.3,2.5,0.4,6.2,0.2,8.1c0.3-0.7,0.7-1.7,1.3-2.9c1-2,1.8-2.9,2.4-3.8c0,0,1.1-1.7,2-11l0,0c0,0.5,0,1-0.1,1.5
			c-0.1,2.7-0.4,5.2-0.8,7.6c4.2-6.8,8.5-13.6,12.7-20.4c-2.7,4.3-5.4,8.9-8.1,13.8c-1.2,2.2-2.3,4.4-3.4,6.6
			c0.7-0.5,1.7-1.1,2.9-1.6c1.5-0.6,2.8-1,3.9-1.1c-1.6,0.4-4.5,1.3-7.1,3.8c-1.2,1.1-2,2.3-2.6,3.3c-0.7,0.9-1.6,2.4-2.2,4.3
			c-0.4,1.3-0.5,2.5-0.6,3.5c1-0.9,2.5-2.1,4.6-3.1c1.9-0.9,3.6-1.3,4.9-1.5c-3.5,0.8-5.8,2.3-7.1,3.3c-2.3,1.8-3.8,3.8-5.6,6.5
			C333.9,108.1,333,109.7,332.4,110.7z"/>
		<path class="st8" d="M376.2,91.7c0.6-3.3,1.3-6.6,1.9-10c1.1-2.3,2.9-5.7,5.9-9.5c2.8-3.6,5.7-6.4,5.6-6.3c-1.2,1-2.5,2.1-3.9,3.5
			c-1.9,2-4.5,5.2-5.7,7c0.2-0.8,0.6-2,0.8-3.4c0.4-2.4,0.3-3.7,0.4-5c0,0,0.2-2.3,5.6-11.1l0,0c-0.3,0.5-0.6,0.9-1,1.4
			c-1.7,2.4-3.1,4.9-4.4,7.2c0.8-8.9,1.6-17.8,2.4-26.7c-0.5,5.6-1.1,11.5-2.1,17.7c-0.4,2.8-0.9,5.5-1.4,8.2
			c-0.3-0.9-0.8-2.1-1.5-3.4c-0.9-1.6-1.9-2.8-2.7-3.6c1.2,1.4,3.1,4.2,3.8,8.3c0.3,1.8,0.2,3.4,0.1,4.7c0,1.3-0.2,3.2-1,5.3
			c-0.5,1.5-1.2,2.6-1.8,3.5c-0.3-1.5-0.8-3.6-2-5.8c-1.1-2.1-2.4-3.6-3.4-4.7c2.5,3.1,3.6,6,4.1,7.8c0.9,3.2,0.8,6,0.7,9.6
			C376.6,88.4,376.4,90.4,376.2,91.7z"/>
		<path class="st8" d="M378,126.9c0,0.1,3,0.7,6.9,1.9c1.3,0.4,2.3,0.7,3,1c1.7,1.2,4.3,3.1,6.9,5.5c2.3,2.2,4.3,4.4,4.6,4.7
			c0.4,0.5,0.7,0.8,0.7,0.8c-0.8-1.2-1.7-2.4-2.9-3.7c-1.7-1.9-4.4-4.4-5.8-5.6c0.7,0.3,1.7,0.6,3,1c2.1,0.6,3.3,0.6,4.4,0.8
			c0,0,2,0.3,9.5,5.8c-0.4-0.3-0.8-0.6-1.2-1c-2.1-1.7-4.1-3.2-6.1-4.5c7.9,1.4,23.9,6.1,23.9,6.1s-10.5-3.8-15.9-5.2
			c-2.5-0.6-4.9-1.2-7.2-1.9c0.8-0.2,1.9-0.5,3.2-1.1c1.5-0.7,2.6-1.4,3.4-2.1c0.2-0.1-3.1,2.2-7.6,2.7c-4.4,0.5-7.9-1.1-8.8-1.6
			c-1.3-0.6-2.3-1.3-3-1.9c1.3-0.1,3.2-0.4,5.4-1.3c1.9-0.8,3.4-1.8,4.4-2.6c-2.9,2-5.6,2.7-7.2,3c-2.9,0.5-5.4,0.2-8.6-0.2
			C380.2,127.4,378,126.9,378,126.9z"/>
		<path class="st8" d="M381.5,111c2.7-1.3,5.5-2.6,8.2-4c1.7-1.5,4.3-3.9,6.8-7.3c2.4-3.3,4.3-6.4,4.2-6.3c-0.6,1.3-1.3,2.7-2.2,4.1
			c-1.3,2.1-3.5,5.1-4.7,6.5c0.6-0.4,1.6-0.9,2.8-1.5c2-0.9,3.2-1.2,4.2-1.5c0,0,1.9-0.7,8.3-7.4c-0.3,0.4-0.6,0.8-1,1.2
			c-1.7,2-3.5,3.8-5.3,5.5c7.5-2.8,15-5.5,22.5-8.3c-4.8,1.7-9.7,3.7-14.8,6c-2.3,1-4.6,2.1-6.7,3.1c0.9,0.1,2,0.2,3.3,0.5
			c1.5,0.4,2.8,1,3.8,1.5c-1.5-0.7-4.4-1.7-8-1.3c-1.6,0.2-3,0.6-4,1c-1.1,0.3-2.7,0.9-4.3,2.1c-1.1,0.8-2,1.7-2.6,2.4
			c1.3-0.1,3.3-0.1,5.5,0.4c2.1,0.5,3.7,1.2,4.8,1.8c-3.3-1.5-6-1.7-7.6-1.7c-3,0-5.3,0.7-8.4,1.7
			C384.2,109.9,382.6,110.5,381.5,111z"/>
		<path class="st8" d="M327.1,164c2.5-1.8,5-3.5,7.4-5.3c1.4-1.7,3.6-4.5,5.5-8.3c1.8-3.5,2.9-5.6,2.9-5.6c0,0,0,0,0,0
			c0,0.2-3.5,7.4-4.9,10.3c0.6-0.5,1.4-1.2,2.5-1.9c1.8-1.3,2.9-1.7,3.9-2.2c0,0,1.8-1,7-8.7c-0.2,0.4-0.5,0.9-0.8,1.3
			c-1.4,2.3-2.8,4.4-4.3,6.3c7-4,13.9-8,20.9-11.9c-4.4,2.5-9,5.2-13.7,8.3c-2.1,1.4-4.2,2.8-6.1,4.2c0.9-0.1,2-0.2,3.3,0
			c1.6,0.1,2.9,0.5,3.9,0.8c-1.6-0.4-4.6-1-8.1,0c-1.6,0.4-2.9,1.1-3.8,1.7c-1,0.5-2.5,1.4-3.9,2.8c-1,1-1.7,2-2.2,2.8
			c1.3-0.3,3.2-0.7,5.5-0.5c2.1,0.1,3.8,0.6,5,1c-3.5-0.9-6.2-0.7-7.8-0.4c-2.9,0.5-5.1,1.6-8,3.1
			C329.6,162.5,328.1,163.4,327.1,164z"/>
		<path class="st8" d="M347.9,171.1c3.5,0.7,6.9,1.4,10.4,2.2c2.6-0.1,6.8-0.4,11.7-1.6c4.7-1.1,8.7-2.6,8.6-2.6
			c-1.5,0.7-3.1,1.4-5.1,2.1c-2.8,1-7,2-9.2,2.4c0.9,0.1,2.1,0.3,3.6,0.6c2.5,0.6,3.7,1.1,5,1.5c0,0,2.3,0.7,13.1-0.7
			c-0.6,0.1-1.2,0.2-1.8,0.3c-3.1,0.6-6,0.9-8.9,1.1c8.9,2.7,17.8,5.4,26.7,8.2c-5.6-1.8-11.6-3.4-17.9-5c-2.9-0.7-5.7-1.3-8.5-1.9
			c0.7,0.6,1.7,1.5,2.6,2.7c1.1,1.4,1.8,2.7,2.3,3.8c-0.8-1.6-2.7-4.4-6.3-6.6c-1.6-1-3.2-1.5-4.4-1.9c-1.3-0.5-3.1-1-5.5-1.2
			c-1.6-0.1-3,0.1-4.1,0.3c1.3,0.8,3.1,2.1,4.7,4.1c1.5,1.8,2.4,3.5,3,4.8c-1.9-3.5-4.2-5.5-5.6-6.7c-2.7-2-5.4-3-8.9-4.3
			C351.2,172,349.2,171.4,347.9,171.1z"/>
		<path class="st8" d="M300,203.8l6-2c1-0.5,3.2-1.2,6-1c3.4,0.3,5.8,2,6.6,2.7c-0.3-0.5-2.2-3-5.6-3.7c-3-0.6-5.4,0.6-6,1
			c1.3-1,3.7-2.5,7-3c6.2-1,11,2.2,12.1,3c-0.7-0.8-2.1-2.1-4.1-3c-1.6-0.7-3-0.9-4-1c2.1-0.1,4.4-0.2,7,0c4.1,0.3,7.6,1,10.5,1.9
			c-4.1-1.7-10.6-3.8-18.5-2.9c-1.9,0.2-3.6,0.6-5.1,1c0.7-0.6,1.8-1.4,3.1-2c1.1-0.5,2.2-0.8,3-1c-4.7,0.2-7.4,1.6-9,3
			c-1,0.9-1.5,1.6-3,3C303.7,201.8,301.5,203.1,300,203.8z"/>
	</g>
</g>
<g>
	<g>
		<circle class="st5" cx="117.9" cy="245.9" r="10.2"/>
		<circle class="st6" cx="114.1" cy="241.1" r="2.5"/>
	</g>
	<g>
		<circle class="st5" cx="127.6" cy="272.6" r="11"/>
		<circle class="st6" cx="124.7" cy="266.9" r="2.5"/>
	</g>
	<g>
		<circle class="st5" cx="90.6" cy="283.6" r="11"/>
		<circle class="st6" cx="88.5" cy="279.1" r="2.5"/>
	</g>
	<g>
		<circle class="st5" cx="56.6" cy="276.6" r="11"/>
		<circle class="st6" cx="50.9" cy="273.6" r="2.5"/>
	</g>
	<g>
		<circle class="st5" cx="23.6" cy="284.6" r="11"/>
		<circle class="st6" cx="17.9" cy="281.8" r="2.5"/>
	</g>
	<g>
		<circle class="st5" cx="90.4" cy="245.7" r="9.3"/>
		<circle class="st6" cx="85.4" cy="243.7" r="2.1"/>
	</g>
	<g>
		<path class="st7" d="M180.1,267.1l-8-24c-1.7-2.1-4.3-5.1-8-8c-4.6-3.7-14.2-9.9-42-12c-18.6-1.4-27.9-2.1-41,1
			c-9.1,2.2-25.9,6.2-40,21c-11,11.5-15.2,24.2-17,31c-0.9,0-1.7,0-2.6,0c2-9.2,6.8-23.2,18.6-35c15.1-15.1,33.4-18.5,47-21
			c15.2-2.8,27.1-1.8,36-1c11.5,1,23.1,2.1,36,9c5.3,2.8,9.3,5.8,12,8c-1.8-7.4-3.6-13.5-5-18c-2.8-9-4.1-11.5-5-13
			c-1.6-2.7-3.3-5-10-12c-6.4-6.7-9.6-10-12-12c-3.5-2.9-13.9-10.2-36-9c-0.3-0.7-0.7-1.3-1-2c5.6-0.5,12.8-0.6,21,1
			c4.1,0.8,7.8,1.9,11,3c-1.6-1.6-3.6-3.3-6-5c-1.8-1.2-3.5-2.2-5-3c0.3-1.3,0.7-2.7,1-4c5,3.6,10.5,7.9,16,13
			c4.1,3.7,7.7,7.4,11,11c-2.2-4.3-5.7-10.9-10-19c-4.4-8.2-6.6-12.4-7-13c-12.9-20.1-38.6-25.3-42-26c-4.1-0.8-10.3-1.6-18-1
			c-0.3-0.7-0.7-1.3-1-2h16.3c-1.1-0.7-2.8-1.9-4.3-4c-1.1-1.5-1.7-2.9-2-4c-2-0.1-4.4-0.4-7-1c-3.3-0.8-6-2-8-3
			c0.7-0.7,1.3-1.3,2-2c1.7,0.7,3.7,1.4,6,2c1.8,0.5,3.5,0.8,5,1c-1.6-2.2-3.4-5.2-5-9c-1.8-4.2-2.6-8.1-3-11c0.7-0.3,1.3-0.7,2-1
			c1.6,6,4.6,13.8,10,22c2.6,4,5.4,7.3,8,10c4.8,0.6,12,2,20,6c8.9,4.5,14.7,10.2,18,14c-2.9-4.4-6.2-10.1-9-17
			c-2.4-5.9-4-11.3-5-16c0.7-0.3,1.3-0.7,2-1c1.7,4.7,3.3,9.3,5,14c-0.3-4.8-0.2-8.9,0-12c0.5-8.1,1.6-11.9,2-13
			c0.7-2.1,1.4-3.8,2-5c0.7,0.7,1.3,1.3,2,2c-0.8,2.2-1.5,4.5-2,7c-3.1,14.4,0,27,3,35c-0.2-2-0.3-5.3,1-9c0.6-1.6,1.3-2.9,2-4
			c0.7,0.3,1.3,0.7,2,1c-2.9,9.1-2.2,15.6-1,20c1.8,6.3,5,9.2,11,20c3.2,5.8,5.6,10.7,7,14c0-5.7,0-11.3,0-17l3,5
			c-0.7,4.6-1,11.4,1,19c1.8,6.7,4.6,10.9,7,15c3.8,6.5,8.5,16.2,12,30c1-0.7,2-1.3,3-2c0,4,0,8,0,12c0.8,1.4,1.5,3.1,2,5
			C183.5,256.2,181.4,263.5,180.1,267.1z"/>
		<path class="st7" d="M16.1,90.1c1,0.7,2.4,1.7,4,3c4.8,4,6.9,7.4,10,11c2.8,3.2,5.6,6.5,10,9c11.2,6.4,23.2,2.3,24,2
			c1.4-0.5,3.7-1.1,4.7-1.6c1.3-0.7,1.8-2.4,1.1-3.7c-2-3.6-6.3-8.5-11.8-12.7c-7.6-5.8-15.3-7.2-20-8C28.8,87.6,21,88.9,16.1,90.1z
			"/>
		<path class="st7" d="M72.1,124.1c1.6,1.2,1.9,2.5,1.9,2.7c0.4,1.6-0.4,3.3-1.9,5.3c-4.3,5.4-11,8-11,8c-13.7,5.3-29.4,4.2-34,3
			c-0.6-0.2-2.7-0.8-5.5-0.5c-1.7,0.2-3.1,0.6-4,1c6.2-7.2,12.4-11.8,16.8-14.5c4.1-2.6,11-6.7,20.7-8
			C55.1,121.1,66.3,119.6,72.1,124.1z"/>
		<path class="st7" d="M74.1,134.5c0.7,0.6,1.8,1.4,3,2.6c7.4,7,8.1,12.5,12,18c5.9,8.3,17,14.1,27,13c3-0.3,5.4-1.2,7.3-2.1
			c1-0.5,1.5-1.6,1.3-2.7c-0.7-2.8-2-6.5-4.6-10.2c-7.2-10.4-19-13.6-28-16C87.9,136,81.8,134.7,74.1,134.5z"/>
		<path class="st7" d="M104,172.1c0.2-1.2-0.5-2.4-1.6-2.9c-3-1.5-7.1-3.2-12.3-4.1c-2.8-0.5-10.8-1.8-20,1c-5.8,1.8-11.6,6.2-23,15
			c-4.2,3.2-7.6,6-10,8c1.6-0.4,4-0.9,7-1c8.1-0.4,13.8,2,17,3c14.3,4.5,34.9-1.4,41-13C103.2,176,103.7,173.9,104,172.1z"/>
		<path class="st7" d="M163.5,210.5c-1.1-1.3-2.9-3-5.4-4.4c-1.9-1.1-3.6-1.7-5-2c-3-5-6.6-7.6-9-9c-10.7-6.2-26-3.7-39,6
			c1.4-0.4,3.4-1,6-1c13.1-0.1,18.7,13.2,29,13c3.2,0,7.6-1.4,12.9-7.3c1.5,0.4,3.2,1.2,5.1,2.3c3.6,2.2,5.8,5,7,6.8
			C164.6,213.5,164.1,212,163.5,210.5z"/>
		<path class="st7" d="M75.8,93.6c-1,0.8-2.4,0.9-3.5,0.3c-4.4-2.3-10.4-6.6-14.2-13.7c-6.2-11.9-3.4-26.1,0-33c0.6-1.2,2.3-4.3,4-9
			c1.6-4.2,2.5-7.7,3-10c0.3,1.4,0.9,3.6,2,6c3.4,7.8,8.3,10.8,12,15c6.1,6.8,10.2,18.1,8,28C85.3,85.2,79.7,90.7,75.8,93.6z"/>
		<path class="st7" d="M116.3,113.2c1.8,0.1,3.4-1,4-2.6c2.2-5.6,2.1-10.1,1.8-12.4c-1.2-11.2-10.3-18.8-14-22
			c-3.1-2.6-5.2-3.6-13-10c-2.6-2.1-4.6-3.8-6-5c0.5,1.3,1.3,3.4,2,6c2.1,7.7,1.7,12.6,2,17c0.7,9,5.2,22.1,15,27
			C110.9,112.6,113.8,113.1,116.3,113.2z"/>
		<path class="st7" d="M130.5,97.3c-1.5-0.1-2.8-0.9-3.4-2.3c-2.4-5.6-5.2-14.7-3-24.9c2.2-10.6,8.5-17.7,15-25
			c4.8-5.5,9.5-9.4,13-12c-0.5,1.8-1,4.6-1,8c0,6.4,2.1,9.5,3,16c0.8,5.3,0.3,9.5,0,12c-0.7,5.7-2.3,20.3-13,26
			C139.4,96.1,135.9,97.6,130.5,97.3z"/>
		<path class="st7" d="M137,129.2c-1.7,0.1-3.2-1.2-3.4-2.9c-0.4-3-0.5-6.9,0.5-11.2c2.4-9.7,9.1-15.5,12-18c4.5-3.9,6.1-3.6,15-10
			c4-2.8,7-5.4,9-7c-0.8,1.3-1.9,3.3-3,6c-2.5,6.3-2.7,11.1-3,14c-1.2,9.9-7.7,22.3-18,27C144.2,128,141.2,129,137,129.2z"/>
		<path class="st7" d="M183.1,108.1c-1.3,1.4-3.3,3.6-6,6c-4.3,3.9-7.8,6.1-9,7c-6.6,4.6-13.6,14.2-16,25c-2,9-0.4,16.9,1.3,22
			c0.4,1.3,1.6,2.1,3,2.1c2.8,0,6.3-0.4,9.8-2.1c13.5-6.8,14.9-28.2,15-30c0.4-7.2-1.1-13,1-25C182.5,111,182.8,109.3,183.1,108.1z"
			/>
		<path class="st7" d="M55.1,268.1c0.6-3.7,1.7-8.5,4-14c1.9-4.5,3.8-9.2,8-14c3.7-4.3,7.2-6.3,12-13c0.9-1.3,1.6-2.3,2-3
			c1.1-0.2,2.2-0.5,3.3-0.7c-1,1.8-2.8,4.6-5.3,7.7c-5.2,6.3-7.9,6.5-12,12c-3.3,4.4-4.8,8.5-6,12c-1.8,5.1-2.6,9.6-3,13
			C57.1,268.1,56.1,268.1,55.1,268.1z"/>
		<path class="st7" d="M92.1,239.1l-2-1c0,0-0.2-3.9,0-6c0.6-5.9,4.8-9.3,5.7-10.1c1.4,0,2.8-0.1,4.2-0.1c-1.5,1.1-3.3,2.8-5,5.2
			C91.8,231.9,92.1,239.1,92.1,239.1z"/>
		<path class="st7" d="M108.9,222.2c-1,1.2-2.5,3.2-3.8,5.9c-6.4,13.2,1.4,23.9-4,37c-1,2.5-3,6.2-7,10l2,1c3.3-3.7,5.1-7,6-9
			c6.9-15.2-1.1-28.1,7-40c1.6-2.3,3.3-3.9,4.2-4.6C111.8,222.4,110.4,222.3,108.9,222.2z"/>
		<path class="st7" d="M122.8,223.2c-3.1,3.1-4.8,6-5.7,7.9c-1.7,3.7-1,6-1,6s1-0.1,1,0c0.2-1.9,1-5.9,5-10c1.7-1.8,3.6-2.9,5-3.6
			C125.7,223.4,124.2,223.3,122.8,223.2z"/>
		<path class="st7" d="M135.7,224.7c-0.4,1.9-0.8,4.9-0.6,8.4c0.4,10.3,4.8,14.5,4,22c-0.3,2.6-1.3,6.5-5,11c0.3,0.3,0.7,0.7,1,1
			c4.3-4.4,5.6-8.4,6-11c1.3-7.7-3.5-12.5-3-23c0.2-3.4,0.8-6.2,1.3-7.8C138.2,225.1,137,224.9,135.7,224.7z"/>
		<path class="st8" d="M156.3,166.1c1.1-2.8,2.2-5.7,3.3-8.5c0.2-2.2,0.5-5.7,0-10c-0.4-4.1-1.3-7.6-1.3-7.5
			c0.5,1.3,0.9,2.8,1.3,4.5c0.5,2.4,1,6.1,1,8c0.2-0.7,0.5-1.8,1-3c0.8-2.1,1.5-3,2-4c0,0,0.9-1.8,1-11.1l0,0c0,0.5,0.1,1,0.1,1.5
			c0.1,2.7,0.1,5.2-0.1,7.6c3.6-7.2,7.2-14.3,10.7-21.5c-2.3,4.5-4.6,9.3-6.7,14.5c-1,2.3-1.9,4.6-2.8,6.9c0.7-0.6,1.6-1.2,2.8-1.9
			c1.4-0.8,2.7-1.2,3.7-1.5c-1.5,0.5-4.4,1.7-6.7,4.5c-1.1,1.2-1.8,2.5-2.3,3.5c-0.6,1-1.3,2.5-1.7,4.5c-0.3,1.4-0.3,2.6-0.3,3.5
			c0.9-1,2.3-2.3,4.3-3.5c1.8-1.1,3.5-1.6,4.7-2c-3.4,1.2-5.5,2.9-6.7,4c-2.2,2-3.4,4.2-5,7C157.6,163.5,156.8,165,156.3,166.1z"/>
		<path class="st8" d="M135.8,125.5c1.5-2.2,3-4.4,4.5-6.7c0.7-1.9,1.6-4.8,2-8.6c0.4-3.6,0.4-6.8,0.4-6.7c0.1,1.2,0.2,2.6,0.2,4.1
			c-0.1,2.2-0.4,5.5-0.8,7.1c0.3-0.6,0.8-1.4,1.5-2.4c1.1-1.6,1.9-2.3,2.5-3c0,0,1.1-1.4,3.1-9.4l0,0c-0.1,0.4-0.1,0.9-0.2,1.3
			c-0.4,2.3-1,4.5-1.6,6.5c4.5-5.5,9-10.9,13.4-16.4c-2.9,3.4-5.8,7.1-8.6,11.1c-1.3,1.8-2.5,3.6-3.7,5.4c0.7-0.3,1.6-0.8,2.7-1.1
			c1.3-0.4,2.5-0.5,3.5-0.5c-1.4,0.1-4.1,0.6-6.6,2.5c-1.2,0.9-2,1.8-2.6,2.6c-0.7,0.7-1.6,1.9-2.4,3.5c-0.5,1.1-0.8,2.1-0.9,3
			c1-0.7,2.4-1.6,4.3-2.2c1.8-0.6,3.3-0.7,4.4-0.8c-3.1,0.3-5.3,1.4-6.5,2.1c-2.2,1.3-3.7,2.9-5.6,5
			C137.4,123.4,136.4,124.6,135.8,125.5z"/>
		<path class="st8" d="M130.7,94.9c0.9-3.1,1.7-6.1,2.6-9.2c0-2.4-0.1-6-1-10.5c-0.9-4.2-2.2-7.8-2.1-7.7c0.6,1.3,1.3,2.9,1.8,4.6
			c0.8,2.5,1.6,6.3,1.9,8.3c0.1-0.8,0.4-1.9,0.8-3.2c0.7-2.2,1.3-3.3,1.7-4.4c0,0,0.8-2-0.1-11.7l0,0c0.1,0.5,0.2,1,0.2,1.6
			c0.4,2.8,0.6,5.4,0.7,7.9c3.1-7.9,6.2-15.7,9.3-23.6c-2,5-3.9,10.2-5.7,15.8c-0.8,2.5-1.6,5-2.2,7.5c0.7-0.6,1.6-1.5,2.8-2.3
			c1.4-0.9,2.8-1.6,3.8-2c-1.6,0.7-4.5,2.3-6.7,5.4c-1,1.4-1.7,2.8-2.1,3.9c-0.5,1.1-1.2,2.8-1.4,4.9c-0.2,1.5-0.1,2.7,0.1,3.7
			c0.9-1.1,2.2-2.7,4.2-4.1c1.8-1.3,3.6-2.1,4.9-2.5c-3.5,1.6-5.6,3.6-6.8,4.8c-2.1,2.3-3.2,4.7-4.6,7.8
			C131.8,91.9,131.1,93.7,130.7,94.9z"/>
		<path class="st8" d="M117.1,110.5c-1.3-2.7-2.7-5.4-4-8.2c-0.5-2.2-1-5.7-0.9-10c0.1-4.1,0.6-7.7,0.5-7.6
			c-0.3,1.4-0.6,2.9-0.8,4.6c-0.3,2.5-0.4,6.2-0.2,8.1c-0.3-0.7-0.7-1.7-1.3-2.9c-1-2-1.8-2.9-2.4-3.8c0,0-1.1-1.7-2-11l0,0
			c0,0.5,0,1,0.1,1.5c0.1,2.7,0.4,5.2,0.8,7.6c-4.2-6.8-8.5-13.6-12.7-20.4c2.7,4.3,5.4,8.9,8.1,13.8c1.2,2.2,2.3,4.4,3.4,6.6
			c-0.7-0.5-1.7-1.1-2.9-1.6c-1.5-0.6-2.8-1-3.9-1.1c1.6,0.4,4.5,1.3,7.1,3.8c1.2,1.1,2,2.3,2.6,3.3c0.7,0.9,1.6,2.4,2.2,4.3
			c0.4,1.3,0.5,2.5,0.6,3.5c-1-0.9-2.5-2.1-4.6-3.1c-1.9-0.9-3.6-1.3-4.9-1.5c3.5,0.8,5.8,2.3,7.1,3.3c2.3,1.8,3.8,3.8,5.6,6.5
			C115.7,108,116.6,109.5,117.1,110.5z"/>
		<path class="st8" d="M73.4,91.5c-0.6-3.3-1.3-6.6-1.9-10c-1.1-2.3-2.9-5.7-5.9-9.5c-2.8-3.6-5.7-6.4-5.6-6.3
			c1.2,1,2.5,2.1,3.9,3.5c1.9,2,4.5,5.2,5.7,7c-0.2-0.8-0.6-2-0.8-3.4c-0.4-2.4-0.3-3.7-0.4-5c0,0-0.2-2.3-5.6-11.1l0,0
			c0.3,0.5,0.6,0.9,1,1.4c1.7,2.4,3.1,4.9,4.4,7.2c-0.8-8.9-1.6-17.8-2.4-26.7c0.5,5.6,1.1,11.5,2.1,17.7c0.4,2.8,0.9,5.5,1.4,8.2
			c0.3-0.9,0.8-2.1,1.5-3.4c0.9-1.6,1.9-2.8,2.7-3.6c-1.2,1.4-3.1,4.2-3.8,8.3c-0.3,1.8-0.2,3.4-0.1,4.7c0,1.3,0.2,3.2,1,5.3
			c0.5,1.5,1.2,2.6,1.8,3.5c0.3-1.5,0.8-3.6,2-5.8c1.1-2.1,2.4-3.6,3.4-4.7c-2.5,3.1-3.6,6-4.1,7.8c-0.9,3.2-0.8,6-0.7,9.6
			C73,88.3,73.2,90.2,73.4,91.5z"/>
		<path class="st8" d="M71.5,126.7c0,0.1-3,0.7-6.9,1.9c-1.3,0.4-2.3,0.7-3,1c-1.7,1.2-4.3,3.1-6.9,5.5c-2.3,2.2-4.3,4.4-4.6,4.7
			c-0.4,0.5-0.7,0.8-0.7,0.8c0.8-1.2,1.7-2.4,2.9-3.7c1.7-1.9,4.4-4.4,5.8-5.6c-0.7,0.3-1.7,0.6-3,1c-2.1,0.6-3.3,0.6-4.4,0.8
			c0,0-2,0.3-9.5,5.8c0.4-0.3,0.8-0.6,1.2-1c2.1-1.7,4.1-3.2,6.1-4.5c-7.9,1.4-23.9,6.1-23.9,6.1s10.5-3.8,15.9-5.2
			c2.5-0.6,4.9-1.2,7.2-1.9c-0.8-0.2-1.9-0.5-3.2-1.1c-1.5-0.7-2.6-1.4-3.4-2.1c-0.2-0.1,3.1,2.2,7.6,2.7c4.4,0.5,7.9-1.1,8.8-1.6
			c1.3-0.6,2.3-1.3,3-1.9c-1.3-0.1-3.2-0.4-5.4-1.3c-1.9-0.8-3.4-1.8-4.4-2.6c2.9,2,5.6,2.7,7.2,3c2.9,0.5,5.4,0.2,8.6-0.2
			C69.4,127.3,71.5,126.7,71.5,126.7z"/>
		<path class="st8" d="M68.1,110.8c-2.7-1.3-5.5-2.6-8.2-4c-1.7-1.5-4.3-3.9-6.8-7.3c-2.4-3.3-4.3-6.4-4.2-6.3
			c0.6,1.3,1.3,2.7,2.2,4.1c1.3,2.1,3.5,5.1,4.7,6.5c-0.6-0.4-1.6-0.9-2.8-1.5c-2-0.9-3.2-1.2-4.2-1.5c0,0-1.9-0.7-8.3-7.4
			c0.3,0.4,0.6,0.8,1,1.2c1.7,2,3.5,3.8,5.3,5.5c-7.5-2.8-15-5.5-22.5-8.3c4.8,1.7,9.7,3.7,14.8,6c2.3,1,4.6,2.1,6.7,3.1
			c-0.9,0.1-2,0.2-3.3,0.5c-1.5,0.4-2.8,1-3.8,1.5c1.5-0.7,4.4-1.7,8-1.3c1.6,0.2,3,0.6,4,1c1.1,0.3,2.7,0.9,4.3,2.1
			c1.1,0.8,2,1.7,2.6,2.4c-1.3-0.1-3.3-0.1-5.5,0.4c-2.1,0.5-3.7,1.2-4.8,1.8c3.3-1.5,6-1.7,7.6-1.7c3,0,5.3,0.7,8.4,1.7
			C65.4,109.7,67,110.4,68.1,110.8z"/>
		<path class="st8" d="M122.5,163.8c-2.5-1.8-5-3.5-7.4-5.3c-1.4-1.7-3.6-4.5-5.5-8.3c-1.8-3.5-2.9-5.6-2.9-5.6c0,0,0,0,0,0
			c0,0.2,3.5,7.4,4.9,10.3c-0.6-0.5-1.4-1.2-2.5-1.9c-1.8-1.3-2.9-1.7-3.9-2.2c0,0-1.8-1-7-8.7c0.2,0.4,0.5,0.9,0.8,1.3
			c1.4,2.3,2.8,4.4,4.3,6.3c-7-4-13.9-8-20.9-11.9c4.4,2.5,9,5.2,13.7,8.3c2.1,1.4,4.2,2.8,6.1,4.2c-0.9-0.1-2-0.2-3.3,0
			c-1.6,0.1-2.9,0.5-3.9,0.8c1.6-0.4,4.6-1,8.1,0c1.6,0.4,2.9,1.1,3.8,1.7c1,0.5,2.5,1.4,3.9,2.8c1,1,1.7,2,2.2,2.8
			c-1.3-0.3-3.2-0.7-5.5-0.5c-2.1,0.1-3.8,0.6-5,1c3.5-0.9,6.2-0.7,7.8-0.4c2.9,0.5,5.1,1.6,8,3.1
			C120,162.3,121.5,163.2,122.5,163.8z"/>
		<path class="st8" d="M101.7,170.9c-3.5,0.7-6.9,1.4-10.4,2.2c-2.6-0.1-6.8-0.4-11.7-1.6c-4.7-1.1-8.7-2.6-8.6-2.6
			c1.5,0.7,3.1,1.4,5.1,2.1c2.8,1,7,2,9.2,2.4c-0.9,0.1-2.1,0.3-3.6,0.6c-2.5,0.6-3.7,1.1-5,1.5c0,0-2.3,0.7-13.1-0.7
			c0.6,0.1,1.2,0.2,1.8,0.3c3.1,0.6,6,0.9,8.9,1.1c-8.9,2.7-17.8,5.4-26.7,8.2c5.6-1.8,11.6-3.4,17.9-5c2.9-0.7,5.7-1.3,8.5-1.9
			c-0.7,0.6-1.7,1.5-2.6,2.7c-1.1,1.4-1.8,2.7-2.3,3.8c0.8-1.6,2.7-4.4,6.3-6.6c1.6-1,3.2-1.5,4.4-1.9c1.3-0.5,3.1-1,5.5-1.2
			c1.6-0.1,3,0.1,4.1,0.3c-1.3,0.8-3.1,2.1-4.7,4.1c-1.5,1.8-2.4,3.5-3,4.8c1.9-3.5,4.2-5.5,5.6-6.7c2.7-2,5.4-3,8.9-4.3
			C98.4,171.8,100.4,171.3,101.7,170.9z"/>
		<path class="st8" d="M149.6,203.6l-6-2c-1-0.5-3.2-1.2-6-1c-3.4,0.3-5.8,2-6.6,2.7c0.3-0.5,2.2-3,5.6-3.7c3-0.6,5.4,0.6,6,1
			c-1.3-1-3.7-2.5-7-3c-6.2-1-11,2.2-12.1,3c0.7-0.8,2.1-2.1,4.1-3c1.6-0.7,3-0.9,4-1c-2.1-0.1-4.4-0.2-7,0c-4.1,0.3-7.6,1-10.5,1.9
			c4.1-1.7,10.6-3.8,18.5-2.9c1.9,0.2,3.6,0.6,5.1,1c-0.7-0.6-1.8-1.4-3.1-2c-1.1-0.5-2.2-0.8-3-1c4.7,0.2,7.4,1.6,9,3
			c1,0.9,1.5,1.6,3,3C145.9,201.7,148.1,202.9,149.6,203.6z"/>
	</g>
</g>
<g>
	<linearGradient id="SVGID_1_" gradientUnits="userSpaceOnUse" x1="193.9697" y1="221.8182" x2="256.9697" y2="221.8182">
		<stop  offset="0" style="stop-color:#FFFFFF"/>
		<stop  offset="0.2227" style="stop-color:#CFCFCF"/>
		<stop  offset="0.4755" style="stop-color:#9F9F9F"/>
		<stop  offset="0.6987" style="stop-color:#7C7C7C"/>
		<stop  offset="0.8811" style="stop-color:#666666"/>
		<stop  offset="1" style="stop-color:#5E5E5E"/>
	</linearGradient>
	<rect x="194" y="93.8" class="st9" width="63" height="256"/>
	<polygon points="257,317.7 225.5,349.8 225.5,318.5 257,286.9 	"/>
	<polygon points="225.5,349.8 194,318.4 194,349.8 	"/>
	<polygon points="225.5,318.5 225.5,285.8 193.9,254.2 194,287.5 	"/>
	<polygon points="225.5,285.8 257,254.3 257,222.4 225.5,254.2 	"/>
	<polygon points="225.5,254.2 194,223.6 194,190.4 225.5,222.4 	"/>
	<polygon points="225.5,222.4 257,190.4 257,159.1 225.5,190.8 	"/>
	<polygon points="225.5,190.8 194,159.8 194,126.6 225.5,158.7 	"/>
	<polygon points="225.5,158.7 257,126.6 257,93.8 225.5,125.6 	"/>
	<polygon points="194,93.8 225.5,125.6 225.5,93.8 	"/>
	<rect x="201.4" y="85.2" class="st10" width="47.7" height="8.7"/>
	
		<linearGradient id="SVGID_00000098918191110188614790000000998466738672495245_" gradientUnits="userSpaceOnUse" x1="201.448" y1="82.8834" x2="249.1871" y2="82.8834">
		<stop  offset="0" style="stop-color:#FFFFFF"/>
		<stop  offset="0.2227" style="stop-color:#CFCFCF"/>
		<stop  offset="0.4755" style="stop-color:#9F9F9F"/>
		<stop  offset="0.6987" style="stop-color:#7C7C7C"/>
		<stop  offset="0.8811" style="stop-color:#666666"/>
		<stop  offset="1" style="stop-color:#5E5E5E"/>
	</linearGradient>
	
		<rect x="201.4" y="80.6" style="fill:url(#SVGID_00000098918191110188614790000000998466738672495245_);stroke:#000000;stroke-miterlimit:10;" width="47.7" height="4.6"/>
	<polygon class="st12" points="197.5,80.3 225.3,82.9 253.4,80.3 225.3,67.6 	"/>
	<line class="st13" x1="225.3" y1="67.6" x2="225.3" y2="82.9"/>
</g>
</svg>
