<?xml version="1.0" encoding="utf-8"?>
<!-- Generator: Adobe Illustrator 26.0.2, SVG Export Plug-In . SVG Version: 6.00 Build 0)  -->
<svg version="1.1" id="Слой_1" xmlns="http://www.w3.org/2000/svg" xmlns:xlink="http://www.w3.org/1999/xlink" x="0px" y="0px"
	 viewBox="0 0 450 550" style="enable-background:new 0 0 450 550;" xml:space="preserve">
<style type="text/css">
	.st0{fill:#241566;}
	.st1{fill:#FFFFFF;}
	.st2{fill:#FDFDFD;stroke:#FFFFFF;stroke-width:14;stroke-miterlimit:10;}
	.st3{fill:none;stroke:#FFFFFF;stroke-width:14;stroke-miterlimit:10;}
	.st4{fill:none;stroke:#FFFFFF;stroke-width:13;stroke-miterlimit:10;}
	.st5{fill:none;stroke:#FFFFFF;stroke-width:10;stroke-miterlimit:10;}
	.st6{fill:none;stroke:#FFFFFF;stroke-width:11;stroke-miterlimit:10;}
	.st7{fill:#29167C;}
	.st8{fill:none;stroke:#29167C;stroke-width:2;stroke-linecap:square;stroke-linejoin:round;stroke-miterlimit:10;}
</style>
<g>
	<path class="st0" d="M369.9,495H275c-27.6,0-50,24.6-50,55v0v0c0-30.4-22.4-55-50-55H80.1C35.9,495,0,455.6,0,406.9V0h450v406.9
		C450,455.6,414.1,495,369.9,495z"/>
	<path class="st1" d="M236.3,498h-20.5c-8.1,0-14.7-6.6-14.7-14.7V481h50v2.3C251,491.4,244.4,498,236.3,498z"/>
	<path class="st0" d="M369.8,495c44.3,0,80.2-39.5,80.2-88.3V0H0v406.7C0,455.5,35.9,495,80.2,495H196l29,16.5l32-16.5H369.8z
		 M444.3,7.3v392.2c0,48.7-35.9,88.1-80.1,88.1H247.7c-5.7,0-11.3,2.4-15.1,7c-1.9,2.3-4.6,3.7-7.6,3.7s-5.7-1.4-7.6-3.7
		c-3.8-4.6-9.4-7-15.1-7H86.8c-44.2,0-80.1-39.4-80.1-88.1V7.3H444.3z"/>
	<path class="st1" d="M363.7,488.1c44.2,0,80-39.4,80-88V6.9H6.3V400c0,48.6,35.8,88,80,88H363.7z M427.5,382.2
		c0,48.7-35.9,88.1-80.1,88.1H247.1c-5.5,0-11,2.3-14.7,6.8c-1.8,2.2-4.5,3.6-7.4,3.6s-5.6-1.4-7.4-3.6c-3.7-4.5-9.1-6.8-14.7-6.8
		H102.6c-44.2,0-80.1-39.4-80.1-88.1V24.8h405V382.2z"/>
	<g>
		<line class="st2" x1="427.5" y1="25.5" x2="225" y2="260.1"/>
		<line class="st3" x1="432.2" y1="125.9" x2="225" y2="289.7"/>
		<line class="st3" x1="432.8" y1="174.6" x2="225" y2="335.7"/>
		<line class="st3" x1="432" y1="223.8" x2="225" y2="362.3"/>
		<line class="st3" x1="291.6" y1="22.4" x2="225" y2="325.3"/>
		<line class="st4" x1="289.5" y1="155" x2="225" y2="274.4"/>
		<line class="st4" x1="325.1" y1="180.7" x2="225" y2="290.6"/>
		<line class="st5" x1="243.5" y1="145.3" x2="225" y2="360.4"/>
	</g>
	<g>
		<line class="st2" x1="20.8" y1="22.6" x2="225" y2="259.9"/>
		<line class="st3" x1="17.6" y1="125.5" x2="225" y2="289.5"/>
		<line class="st3" x1="18.1" y1="175.1" x2="225" y2="335.5"/>
		<line class="st3" x1="18.3" y1="223.7" x2="225" y2="362.1"/>
		<line class="st3" x1="158.4" y1="22.2" x2="225" y2="325.1"/>
		<line class="st4" x1="160.5" y1="154.8" x2="225" y2="274.2"/>
		<line class="st4" x1="124.9" y1="180.5" x2="225" y2="290.4"/>
		<line class="st5" x1="206.4" y1="145.3" x2="225" y2="360.2"/>
	</g>
	<line class="st6" x1="225" y1="144.3" x2="225" y2="262.1"/>
	<path class="st1" d="M208.3,59.8l16.9,11.9l21.8-15.4l-6-11.8c-0.3-0.5-0.2-1.2,0.2-1.6l7-8.6c0.4-0.5,1-0.7,1.6-0.5
		c3.4,1,8.5,2.9,13.6,7c7,5.6,10.3,12.3,11.8,16.1c0.2,0.6,0,1.3-0.5,1.7l-17,13.5c-0.7,0.6-1.8,0.4-2.3-0.4l-4.5-8.3l-18.8,13.2
		l37,26.1l-1.6,8.7l-42.4-29.8l-41.4,29.1c-0.9,0.7-2.2-0.2-2.4-1.3l-0.7-5.3c-0.1-0.6,0.2-1.1,0.6-1.5l36.9-25.9L204.5,67l-6,11.7
		c-0.4,0.8-1.5,1.1-2.2,0.5l-10.9-7.7c-0.6-0.4-0.8-1.3-0.5-1.9l6.2-12l-5.6-3.9l-2,3.9c-0.4,0.8-1.5,1.1-2.2,0.5l-5.1-3.6
		c-0.6-0.4-0.8-1.3-0.5-1.9L184,37c0.4-0.8,1.5-1.1,2.2-0.5l5.1,3.6c0.6,0.4,0.8,1.3,0.5,1.9l-2.4,4.6l5.6,3.9l6.1-11.8
		c0.4-0.8,1.5-1.1,2.2-0.5l10.9,7.7c0.6,0.4,0.8,1.3,0.5,1.9L208.3,59.8z"/>
	<g>
		<path class="st1" d="M194.8,432c0.1-1.3,0-2.5-0.2-3.8c-0.1-1.1-0.4-2.1-0.7-3.2c-0.5-1.5-1.7-2.6-3.3-2.8
			c-14.6-2-29.2-4.3-43.4-6.9c-5.3-1-10.2-1.9-14.5-2.8c-15.7-3-27.1-5.3-40-5.3c-3.2,0-6.3,0.1-9.6,0.4c-6.3,0.5-12.6,1.4-18.8,2.8
			V216.6c14.1,7.8,29,13.9,44.4,18.1c14,3.8,26.4,5.5,39.5,7.3c8.2,1.1,15.1,1.8,21.2,2.4c13,1.3,23.3,2.4,37.8,6.5
			c5.6,1.6,11.2,3.5,16.6,5.6c0.5,0.2,1,0.3,1.4,0.3c0.4,0,0.7,0,1.1-0.1c5.7-1.6,11.6-3,17.4-4.2c15.3-3.3,24.8-4.3,35.9-5.4
			c5.9-0.6,12-1.2,19.5-2.3c18-2.5,35-4.8,54.8-12.1c11.4-4.2,22.3-9.4,32.7-15.8v193.5c-4.2-1.2-8.4-2.2-12.6-2.9
			c-4.9-0.8-9.6-1.2-14.4-1.2c-11.9,0-22.3,2.4-34.3,5.1c-2.2,0.5-4.4,1-6.8,1.5c-17,3.7-34.8,6.7-52.8,8.8
			c-1.6,0.2-2.9,1.3-3.3,2.8c-0.3,0.9-0.5,1.9-0.7,2.9c-0.2,1.5-0.3,3-0.2,4.5H194.8z"/>
		<path d="M68.3,223.2c12.6,6.5,25.8,11.6,39.4,15.3c14.3,3.9,26.8,5.6,40.1,7.4c8.2,1.1,15.2,1.8,21.3,2.4
			c12.8,1.3,23,2.3,37.1,6.4c5.5,1.6,11,3.4,16.3,5.5c0.9,0.4,1.9,0.5,2.9,0.5c0.7,0,1.4-0.1,2.1-0.3c5.7-1.5,11.5-3,17.2-4.2
			c15-3.2,24.5-4.2,35.5-5.3c6-0.6,12.1-1.2,19.7-2.3c18.2-2.5,35.4-4.9,55.6-12.3c9.4-3.4,18.6-7.6,27.3-12.6v181.3
			c-2.6-0.6-5.3-1.2-8-1.6c-5.1-0.8-10-1.2-15.1-1.2c-12.4,0-23.5,2.5-35.2,5.2c-2.2,0.5-4.4,1-6.7,1.5c-16.9,3.7-34.5,6.6-52.4,8.8
			c-3.1,0.4-5.7,2.5-6.7,5.5c-0.4,1.1-0.6,2.3-0.8,3.4c-0.1,0.4-0.1,0.8-0.2,1.2h-58.9c0-0.1,0-0.2,0-0.3c-0.2-1.3-0.4-2.5-0.8-3.8
			c-0.9-3-3.5-5.2-6.6-5.6c-14.6-2-29.1-4.3-43.2-6.9c-5.3-1-10.2-1.9-14.5-2.8c-16-3.1-27.5-5.3-40.8-5.3c-3.3,0-6.5,0.1-9.9,0.4
			c-4.9,0.4-9.7,1-14.5,1.9V223.2 M390.7,209.6c-8.2,5.4-21.1,13-38.1,19.3c-19.4,7.1-35.9,9.4-54,11.9c-21.3,2.9-32,2.6-55.7,7.7
			c-7.5,1.6-13.6,3.2-17.6,4.3c-3.9-1.5-9.7-3.6-17-5.7c-21.7-6.2-34.2-5.6-59.6-9.1c-13.3-1.8-25.2-3.4-39-7.2
			c-21.8-6-38.5-14.6-49.5-21.2c0,68.6,0,137.3,0,205.9c5.2-1.3,13.2-3.1,23.1-3.9c3.3-0.3,6.3-0.4,9.3-0.4
			c16.1,0,29.4,3.5,53.8,7.9c10.1,1.9,25.1,4.4,43.6,7c0.2,0.8,0.4,1.6,0.6,2.6c0.4,3-0.1,5.5-0.6,7.2c25.3,0,50.7,0,76,0
			c-0.6-1.9-1.1-4.7-0.6-7.9c0.1-0.8,0.3-1.6,0.6-2.3c22.5-2.7,40.5-6.1,53.2-8.9c14.7-3.2,26.6-6.5,40.3-6.5
			c4.4,0,8.9,0.3,13.8,1.1c7.4,1.2,13.3,3,17.3,4.5C390.7,347.2,390.7,278.4,390.7,209.6L390.7,209.6z"/>
	</g>
	<g>
		<path class="st1" d="M226.7,396.9c-2.8,0-5.5-0.4-8.1-1.2c-4.2-1.2-9.1-2.5-14.2-3.9c-6.8-1.8-13.8-3.7-20.4-5.6
			c-27.2-8-43.5-12.9-62.1-12.9c-1.8,0-3.7,0-5.5,0.1c-12,0.6-24,3-35.9,7.3V210.6c10.6,3.4,21.5,6,32.5,7.7
			c11.2,1.7,22.2,2.5,34.8,2.5c5.3,0,10.2-0.1,15-0.3c4.1-0.1,7.9-0.2,11.6-0.2c12.8,0,22.4,1.3,31.1,8.1
			c4.9,3.8,11.7,9.1,15.8,23.5c0.5,1.7,2.1,2.9,3.8,2.9c0,0,0,0,0,0c1.8,0,3.4-1.2,3.8-3c3.4-12.8,9-17.7,13.6-21.7l0.1-0.1
			c11.1-9.7,24.4-9.7,43-9.9c14.4-0.1,30.7-0.2,50.6-4.7c11.4-2.6,22.6-6.4,33.4-11.2v175.7c-8.9-4.2-18.1-7-27.5-8.3
			c-3.6-0.5-7.1-0.7-10.5-0.7c-13.4,0-26.1,3.7-49.3,10.5c-5.4,1.6-11.4,3.3-18.1,5.2c-3.5,1-6.9,2.1-10.7,3.4
			c-5.1,1.7-10.8,3.6-18.7,5.8C232,396.5,229.4,396.9,226.7,396.9z"/>
		<path class="st7" d="M365.4,210.4v163.5c-7.5-3-15.1-5.1-22.9-6.2c-3.8-0.5-7.4-0.8-11-0.8c-13.9,0-26.9,3.8-50.5,10.7
			c-5.3,1.6-11.4,3.3-18.1,5.2c-3.6,1-7,2.1-10.9,3.4c-5,1.7-10.7,3.5-18.5,5.7c-2.2,0.6-4.5,0.9-6.9,0.9c-2.4,0-4.7-0.3-7-1
			c-4.2-1.2-9.1-2.5-14.3-3.9c-6.7-1.8-13.7-3.7-20.3-5.6c-27.5-8.1-44.1-13-63.3-13c-1.9,0-3.8,0-5.7,0.1
			c-10.6,0.5-21.2,2.4-31.7,5.7V216.1c9.2,2.7,18.5,4.8,27.9,6.2c11.4,1.8,22.6,2.6,35.4,2.6c5.4,0,10.3-0.1,15.1-0.3
			c4.1-0.1,7.9-0.2,11.5-0.2c12.2,0,20.8,1.2,28.6,7.2c4.7,3.7,10.6,8.3,14.4,21.5c1,3.4,4.1,5.8,7.7,5.8c0,0,0.1,0,0.1,0
			c3.6,0,6.7-2.5,7.7-6c3.1-11.6,8-15.9,12.3-19.7l0.1-0.1c10-8.7,22.1-8.8,40.4-8.9c13.9-0.1,31.1-0.2,51.5-4.8
			C346.6,217.2,356.1,214.2,365.4,210.4 M373.4,198c-8.1,4-21.3,9.8-38.3,13.6c-45.7,10.4-74.1-3-95.3,15.5
			c-4.8,4.2-11.2,9.7-14.9,23.8c-4.4-15.4-11.6-21.3-17.2-25.6c-9.7-7.5-20.3-8.9-33.5-8.9c-7.8,0-16.6,0.5-26.6,0.5
			c-10,0-21.3-0.5-34.2-2.5c-16.1-2.5-28.9-6.4-37.1-9.3v181.5c16.9-6.9,30.9-8.6,40.1-9.1c1.8-0.1,3.6-0.1,5.3-0.1
			c17.6,0,33.1,4.5,61,12.7c11.9,3.5,25.1,6.8,34.7,9.5c3,0.9,6.1,1.3,9.3,1.3c3,0,6.1-0.4,9-1.2c13.8-3.9,21.3-6.9,29.4-9.2
			c35.2-10,50.6-15.6,66.4-15.6c3.2,0,6.5,0.2,9.9,0.7c14.4,2,25.5,7.3,32,11V198L373.4,198z"/>
	</g>
	<g>
		<line class="st8" x1="225.3" y1="252.8" x2="226.5" y2="398.6"/>
	</g>
	<g>
		<g>
			<path class="st7" d="M141,322.5c-3.1,0.4-5.5,0.7-9.8,0.7c-17,0-27.3-7.2-27.3-27.1v-17h18.3v17c0,8.9,3.1,12.2,10.9,12.2
				c3.7,0,5.9-0.2,7.9-0.7v-28.6h18.8V350H141V322.5z"/>
			<path class="st7" d="M176.4,279.1h46.3v15.7h-27.5V350h-18.8V279.1z"/>
			<path class="st7" d="M248.8,294.8H230v-15.7h56.3v15.7h-18.8V350h-18.8V294.8z"/>
			<path class="st7" d="M297.8,279.1h18.8v27.1h17l26.4,43.9h-19.6l-17.7-28.8h-6.1V350h-18.8V279.1z M320.9,309.2l10.7-18.8
				c5.2-9.2,11.1-12.7,19.9-12.7c2.2,0,4.8,0.2,6.5,1.1l-3.1,16.8c-1.3-0.4-2.6-0.4-3.3-0.4c-3.3,0-5.1,1.5-7.4,5.5l-7.2,12.2
				L320.9,309.2z"/>
		</g>
	</g>
</g>
</svg>
